<?xml version="1.0" encoding="utf-8"?>
<!-- Generator: Adobe Illustrator 26.0.1, SVG Export Plug-In . SVG Version: 6.00 Build 0)  -->
<svg version="1.1" id="Layer_1" xmlns="http://www.w3.org/2000/svg" xmlns:xlink="http://www.w3.org/1999/xlink" x="0px" y="0px"
	 viewBox="0 0 360 360" enable-background="new 0 0 360 360" xml:space="preserve">
<g>
	<g>
		<path fill="#FFFFFF" d="M303.3,180c0,6.42-0.49,12.72-1.44,18.87c-4.77,31.1-21.16,58.36-44.59,77.23
			c-4.39,3.53-9.02,6.77-13.88,9.68l-0.2,0.12c-1.1,0.66-2.22,1.3-3.34,1.93l-0.1,0.05c-4.86,2.7-9.92,5.08-15.15,7.11
			c-13.83,5.37-28.87,8.31-44.6,8.31c-15.73,0-30.77-2.94-44.6-8.31c-5.23-2.03-10.3-4.41-15.15-7.11l-0.1-0.05
			c-1.13-0.63-2.24-1.27-3.34-1.93l-0.2-0.12c-4.85-2.91-9.49-6.15-13.88-9.68c-23.44-18.87-39.82-46.14-44.59-77.23
			c-0.95-6.15-1.44-12.45-1.44-18.87c0-6.42,0.49-12.72,1.44-18.87c4.77-31.09,21.16-58.35,44.59-77.23
			c4.39-3.53,9.02-6.77,13.88-9.68l0.2-0.12c1.1-0.66,2.22-1.3,3.34-1.93l0.1-0.05c4.86-2.7,9.92-5.08,15.15-7.11
			c13.83-5.37,28.87-8.31,44.6-8.31c15.73,0,30.77,2.94,44.6,8.31c5.23,2.03,10.3,4.41,15.15,7.11c1.23,0.68,2.44,1.38,3.64,2.1
			c4.85,2.91,9.49,6.15,13.88,9.68c23.43,18.87,39.82,46.14,44.59,77.23C302.81,167.28,303.3,173.58,303.3,180z"/>
	</g>
	<path fill="#A7A9AC" d="M194.09,64.88h-28.19v28.19h28.19V64.88z M191.4,90.37h-22.8v-22.8h22.8V90.37z M110.55,119.18l-16.81-9.7
		l-1.35,2.33l16.81,9.7L110.55,119.18z M77.12,221.3l16.81-9.7l-1.35-2.33l-16.81,9.7L77.12,221.3z M98.09,149.54l14.09-24.41
		l-24.41-14.09l-14.09,24.41L98.09,149.54z M88.76,114.72l19.74,11.4l-11.4,19.74l-19.74-11.4L88.76,114.72z M198.43,69.27h-2.7
		v19.41h2.7V69.27z M268.41,151.02l16.81-9.7l-1.35-2.33l-16.81,9.7L268.41,151.02z M286.86,135.37l-14.09-24.41l-24.41,14.09
		l14.09,24.41L286.86,135.37z M271.78,114.64l11.4,19.74l-19.74,11.4l-11.4-19.74L271.78,114.64z M189.7,60.54H170.3v2.7h19.41
		V60.54z M304.53,160.72c-4.77-31.06-20.95-59.09-45.57-78.92c-4.5-3.62-9.27-6.95-14.18-9.89c-1.21-0.73-2.47-1.46-3.72-2.15
		c-4.95-2.75-10.17-5.2-15.48-7.26C211.05,56.86,195.72,54,180,54c-15.72,0-31.05,2.86-45.58,8.5c-5.32,2.06-10.53,4.51-15.49,7.27
		l-0.1,0.05c-1.22,0.68-2.35,1.33-3.42,1.98l-0.19,0.11c-4.92,2.95-9.68,6.28-14.18,9.89c-24.62,19.83-40.8,47.86-45.58,78.92
		C54.49,167.05,54,173.53,54,180s0.49,12.96,1.47,19.28c4.77,31.07,20.94,59.1,45.57,78.93c4.51,3.62,9.27,6.94,14.18,9.89
		l0.21,0.12c1.07,0.64,2.18,1.29,3.41,1.97l0.1,0.05c4.96,2.76,10.17,5.2,15.49,7.27c14.52,5.64,29.86,8.5,45.58,8.5
		c15.72,0,31.05-2.86,45.58-8.5c5.32-2.06,10.53-4.51,15.49-7.27l0.09-0.05c1.23-0.68,2.35-1.33,3.43-1.98l0.18-0.11
		c4.92-2.95,9.69-6.28,14.19-9.89c24.62-19.83,40.8-47.86,45.57-78.93c0.98-6.32,1.47-12.81,1.47-19.28S305.5,167.05,304.53,160.72z
		 M301.87,198.87c-4.77,31.1-21.16,58.36-44.59,77.23c-4.39,3.53-9.02,6.77-13.88,9.68l-0.2,0.12c-1.1,0.66-2.22,1.3-3.34,1.93
		l-0.1,0.05c-4.86,2.7-9.92,5.08-15.15,7.11c-13.83,5.37-28.87,8.31-44.6,8.31c-15.73,0-30.77-2.94-44.6-8.31
		c-5.23-2.03-10.3-4.41-15.15-7.11l-0.1-0.05c-1.13-0.63-2.24-1.27-3.34-1.93l-0.2-0.12c-4.85-2.91-9.49-6.15-13.88-9.68
		c-23.44-18.87-39.82-46.14-44.59-77.23c-0.95-6.15-1.44-12.45-1.44-18.87c0-6.42,0.49-12.72,1.44-18.87
		c4.77-31.09,21.16-58.35,44.59-77.23c4.39-3.53,9.02-6.77,13.88-9.68l0.2-0.12c1.1-0.66,2.22-1.3,3.34-1.93l0.1-0.05
		c4.86-2.7,9.92-5.08,15.15-7.11c13.83-5.37,28.87-8.31,44.6-8.31c15.73,0,30.77,2.94,44.6,8.31c5.23,2.03,10.3,4.41,15.15,7.11
		c1.23,0.68,2.44,1.38,3.64,2.1c4.85,2.91,9.49,6.15,13.88,9.68c23.43,18.87,39.82,46.14,44.59,77.23
		c0.95,6.15,1.44,12.45,1.44,18.87C303.3,186.41,302.81,192.72,301.87,198.87z M74.14,224.91l14.09,24.41l24.41-14.09l-14.09-24.41
		L74.14,224.91z M89.22,245.64l-11.4-19.74l19.74-11.4l11.4,19.74L89.22,245.64z M84.16,114.02l-2.33-1.35l-9.7,16.81l2.33,1.35
		L84.16,114.02z M168.02,294.23h28.19v-28.19h-28.19V294.23z M170.71,268.74h22.8v22.8h-22.8V268.74z M172.41,298.56h19.41v-2.7
		h-19.41V298.56z M262.1,210.12l-14.09,24.41l24.41,14.09l14.09-24.41L262.1,210.12z M271.43,244.94l-19.74-11.4l11.4-19.74
		l19.74,11.4L271.43,244.94z M180,98.6c-44.88,0-81.4,36.52-81.4,81.4c0,44.88,36.51,81.4,81.4,81.4s81.4-36.52,81.4-81.4
		C261.4,135.12,224.88,98.6,180,98.6z M180,253.85c-40.72,0-73.85-33.13-73.85-73.85s33.13-73.85,73.85-73.85
		s73.85,33.13,73.85,73.85S220.72,253.85,180,253.85z M276.03,245.64l2.33,1.35l9.7-16.81l-2.33-1.35L276.03,245.64z M72.58,230.88
		l9.7,16.81l2.33-1.35l-9.7-16.81L72.58,230.88z M276.38,113.94l9.7,16.81l2.33-1.35l-9.7-16.81L276.38,113.94z M163.68,289.84h2.7
		v-19.41h-2.7V289.84z M249.64,240.48l16.81,9.7l1.35-2.33l-16.81-9.7L249.64,240.48z"/>
	<path fill="#1C75BC" d="M149.96,90.25L135.4,65.01c-5.23,2.03-10.3,4.41-15.15,7.11l-0.1,0.05l-3.34,1.93l-0.2,0.12
		c-4.85,2.91-9.49,6.15-13.88,9.68l14.57,25.24C126.71,100.8,137.79,94.32,149.96,90.25z M100.49,179.83V180
		c0,6.43,0.77,12.83,2.29,19.02l3.67-0.9c-1.45-5.9-2.18-11.99-2.18-18.12v-0.17H100.49z M172.98,88.53c1.46,0,2.65-1.19,2.65-2.65
		c0-1.46-1.19-2.65-2.65-2.65c-1.46,0-2.65,1.19-2.65,2.65C170.33,87.34,171.52,88.53,172.98,88.53z M186.91,88.53
		c1.46,0,2.65-1.19,2.65-2.65c0-1.46-1.19-2.65-2.65-2.65s-2.65,1.19-2.65,2.65C184.26,87.34,185.45,88.53,186.91,88.53z
		 M172.98,74.72c1.46,0,2.65-1.19,2.65-2.65c0-1.46-1.19-2.65-2.65-2.65c-1.46,0-2.65,1.19-2.65,2.65
		C170.33,73.53,171.52,74.72,172.98,74.72z M172.98,81.62c1.46,0,2.65-1.19,2.65-2.65s-1.19-2.65-2.65-2.65
		c-1.46,0-2.65,1.19-2.65,2.65S171.52,81.62,172.98,81.62z M137.09,117.58l-2.14-3.11c-5.27,3.63-10.1,7.9-14.36,12.69l2.82,2.51
		C127.46,125.11,132.07,121.04,137.09,117.58z M112.99,144.66l-3.34-1.76c-3,5.67-5.3,11.69-6.84,17.91l3.66,0.91
		C107.95,155.8,110.14,150.06,112.99,144.66z M94.08,142.11c1.27,0.73,2.89,0.3,3.62-0.97c0.73-1.27,0.3-2.89-0.97-3.62
		c-1.27-0.73-2.89-0.3-3.62,0.97C92.38,139.76,92.81,141.38,94.08,142.11z M123.3,230.21c-4.05-4.57-7.55-9.63-10.38-15.02
		l-3.34,1.76c2.98,5.66,6.64,10.97,10.9,15.77L123.3,230.21z M278.36,135.03c1.27-0.73,1.7-2.35,0.97-3.62
		c-0.73-1.27-2.35-1.7-3.62-0.97c-1.27,0.73-1.7,2.35-0.97,3.62C275.48,135.33,277.1,135.76,278.36,135.03z M247.12,144.88
		c2.84,5.41,5.01,11.15,6.45,17.08l3.67-0.9c-1.52-6.22-3.8-12.26-6.78-17.93L247.12,144.88z M257.27,83.9
		c-4.39-3.53-9.02-6.77-13.88-9.68l-3.64-2.1c-4.86-2.7-9.92-5.08-15.15-7.11l-14.57,25.24c12.18,4.07,23.26,10.56,32.66,18.89
		L257.27,83.9z M82.12,135.21c1.27,0.73,2.89,0.3,3.62-0.97c0.73-1.27,0.3-2.89-0.97-3.62c-1.27-0.73-2.89-0.3-3.62,0.97
		C80.41,132.86,80.85,134.48,82.12,135.21z M257.2,199.11c1.53-6.19,2.3-12.59,2.31-19.02l-3.77,0c-0.01,6.13-0.75,12.23-2.2,18.12
		L257.2,199.11z M186.91,81.62c1.46,0,2.65-1.19,2.65-2.65s-1.19-2.65-2.65-2.65s-2.65,1.19-2.65,2.65S185.45,81.62,186.91,81.62z
		 M186.91,74.72c1.46,0,2.65-1.19,2.65-2.65c0-1.46-1.19-2.65-2.65-2.65s-2.65,1.19-2.65,2.65
		C184.26,73.53,185.45,74.72,186.91,74.72z M250.38,217.02l-3.34-1.76c-2.84,5.39-6.34,10.44-10.39,15l2.82,2.51
		C243.73,227.98,247.4,222.68,250.38,217.02z M206.97,109.21l1.34-3.53c-5.98-2.28-12.24-3.83-18.6-4.6l-0.46,3.75
		C195.32,105.56,201.28,107.04,206.97,109.21z M225.26,114.62l-2.15,3.1c5.01,3.48,9.6,7.56,13.64,12.13l2.83-2.5
		C235.34,122.55,230.52,118.27,225.26,114.62z M259.15,229.61c-1.27-0.73-2.89-0.3-3.62,0.97c-0.73,1.27-0.3,2.89,0.97,3.62
		c1.27,0.73,2.89,0.3,3.62-0.97C260.85,231.96,260.42,230.34,259.15,229.61z M222.98,242.37c-5.03,3.47-10.47,6.33-16.16,8.48
		l1.34,3.53c5.98-2.27,11.69-5.26,16.97-8.91L222.98,242.37z M170.82,255.19l-0.45,3.75c3.17,0.38,6.41,0.58,9.63,0.58
		c3.18,0,6.39-0.19,9.53-0.57l-0.45-3.75C183.07,255.92,176.84,255.91,170.82,255.19z M210.03,269.75l14.57,25.24
		c5.23-2.03,10.3-4.41,15.15-7.11l0.1-0.05l3.34-1.93l0.2-0.12c4.85-2.91,9.49-6.15,13.88-9.68l-14.57-25.24
		C233.29,259.19,222.21,265.68,210.03,269.75z M182.21,277.49c-1.46,0-2.65,1.19-2.65,2.65c0,1.46,1.19,2.65,2.65,2.65
		c1.46,0,2.65-1.19,2.65-2.65C184.86,278.67,183.67,277.49,182.21,277.49z M256.79,125.29c-1.27,0.73-1.7,2.35-0.97,3.62
		c0.73,1.27,2.35,1.7,3.62,0.97c1.27-0.73,1.7-2.35,0.97-3.62C259.68,124.99,258.06,124.56,256.79,125.29z M278.07,224.45
		c-1.27-0.73-2.89-0.3-3.62,0.97c-0.73,1.27-0.3,2.89,0.97,3.62c1.27,0.73,2.89,0.3,3.62-0.97
		C279.77,226.81,279.34,225.19,278.07,224.45z M301.86,161.13h-29.13c1.24,6.1,1.89,12.41,1.89,18.87s-0.65,12.77-1.89,18.87h29.13
		c0.95-6.15,1.44-12.45,1.44-18.87C303.3,173.58,302.81,167.28,301.86,161.13z M269,226.73c-1.27-0.73-2.89-0.3-3.62,0.97
		c-0.73,1.27-0.3,2.89,0.97,3.62c1.27,0.73,2.89,0.3,3.62-0.97C270.7,229.08,270.27,227.46,269,226.73z M170.56,101.04
		c-6.37,0.75-12.64,2.28-18.63,4.54l1.33,3.53c5.7-2.15,11.67-3.61,17.74-4.33L170.56,101.04z M89.59,237.31
		c-1.27,0.73-1.7,2.35-0.97,3.62s2.35,1.7,3.62,0.97c1.27-0.73,1.7-2.35,0.97-3.62C92.48,237.01,90.86,236.57,89.59,237.31z
		 M89.08,123.15c1.27,0.73,2.89,0.3,3.62-0.97c0.73-1.27,0.3-2.89-0.97-3.62c-1.27-0.73-2.89-0.3-3.62,0.97
		C87.38,120.8,87.81,122.42,89.08,123.15z M92.24,227.75c-1.27,0.73-1.7,2.35-0.97,3.62c0.73,1.27,2.35,1.7,3.62,0.97
		c1.27-0.73,1.7-2.35,0.97-3.62C95.13,227.45,93.51,227.02,92.24,227.75z M82.63,225.24c-1.27,0.73-1.7,2.35-0.97,3.62
		c0.73,1.27,2.35,1.7,3.62,0.97c1.27-0.73,1.7-2.35,0.97-3.62S83.9,224.51,82.63,225.24z M58.13,161.13
		c-0.95,6.15-1.44,12.45-1.44,18.87c0,6.42,0.49,12.72,1.44,18.87h29.13c-1.24-6.1-1.89-12.41-1.89-18.87s0.65-12.77,1.89-18.87
		H58.13z M105.17,231.37c-0.73-1.27-2.35-1.7-3.62-0.97c-1.27,0.73-1.7,2.35-0.97,3.62c0.73,1.27,2.35,1.7,3.62,0.97
		C105.47,234.26,105.91,232.64,105.17,231.37z M134.81,245.43c5.27,3.65,10.98,6.65,16.95,8.92l1.34-3.53
		c-5.69-2.16-11.12-5.02-16.15-8.5L134.81,245.43z M102.73,276.1c4.39,3.53,9.02,6.77,13.88,9.68l0.2,0.12l3.34,1.93l0.1,0.05
		c4.86,2.7,9.92,5.08,15.15,7.11l14.57-25.24c-12.18-4.07-23.26-10.56-32.67-18.89L102.73,276.1z M94.59,218.34
		c-1.27,0.73-1.7,2.35-0.97,3.62c0.73,1.27,2.35,1.7,3.62,0.97c1.27-0.73,1.7-2.35,0.97-3.62
		C97.48,218.04,95.86,217.61,94.59,218.34z M101.04,130.05c1.27,0.73,2.89,0.3,3.62-0.97c0.73-1.27,0.3-2.89-0.97-3.62
		c-1.27-0.73-2.89-0.3-3.62,0.97C99.34,127.7,99.77,129.32,101.04,130.05z"/>
</g>
</svg>
